<?xml version="1.0" encoding="UTF-8"?>
<svg width="260px" height="71px" viewBox="0 0 260 71" version="1.1" xmlns="http://www.w3.org/2000/svg" xmlns:xlink="http://www.w3.org/1999/xlink">
    <title>Group 64</title>
    <defs>
        <polygon id="path-1" points="0 0.557074074 49.5524921 0.557074074 49.5524921 69.4708995 0 69.4708995"></polygon>
        <polygon id="path-3" points="0 70.0452381 259.361005 70.0452381 259.361005 0.687830688 0 0.687830688"></polygon>
    </defs>
    <g id="Symbols" stroke="none" stroke-width="1" fill="none" fill-rule="evenodd">
        <g id="header/kinesithérapeute" transform="translate(-50.000000, -20.000000)">
            <g id="Group-64" transform="translate(50.000000, 20.000000)">
                <g id="Group-3" transform="translate(0.000000, 0.574339)">
                    <mask id="mask-2" fill="white">
                        <use xlink:href="#path-1"></use>
                    </mask>
                    <g id="Clip-2"></g>
                    <path d="M20.3726508,46.0226825 L20.4180476,46.0515714 L20.4187354,46.0508836 C23.6446614,47.9988201 27.2275714,49.9385026 30.6536561,51.7681323 L30.6536561,51.7674444 C30.9549259,51.9256455 31.2575714,52.0879735 31.5567778,52.2489259 C31.9612222,52.4621534 33.0706931,53.0241111 33.668418,53.5207249 C33.6691058,53.5207249 33.6691058,53.5207249 33.6691058,53.5214127 L33.668418,53.5207249 C33.6697937,53.5221005 33.6704815,53.5234762 33.6718571,53.524164 C34.0150847,53.8096138 34.1774127,54.1432116 34.2186825,54.2326296 C34.233127,54.2642698 34.237254,54.2965979 34.2461958,54.3289259 C34.3252963,54.7746402 34.0288413,55.222418 33.4462487,55.6674444 C33.4318042,55.6777619 33.4207989,55.6887672 33.4063545,55.6983968 C33.3974127,55.7045873 33.3870952,55.7114656 33.3788413,55.7183439 C33.2797937,55.7864392 33.1745556,55.8559101 33.0610635,55.925381 C30.8022275,57.3079206 25.6827037,58.8060159 19.9262487,60.3804603 C16.8722804,61.2141111 13.6367249,62.0821534 10.7409577,62.9096138 C11.2224392,61.9961746 11.7465661,60.9926296 11.7465661,60.9926296 L11.7458783,60.991254 C13.0135503,58.5755926 14.2626508,56.0822063 15.3996349,53.2442169 C16.5132328,50.700619 17.5834974,47.7051164 18.4735503,44.8458042 C19.0891587,45.2378677 19.7233386,45.630619 20.3726508,46.0226825 M13.3657196,39.5832116 C12.8065132,39.1134233 12.2638148,38.5019418 12.0767249,37.7804074 C11.170164,34.284164 16.0131799,30.8415714 18.2252434,28.9534762 C18.3091587,28.8819418 18.3999524,28.8035291 18.4976243,28.7196138 C18.5065661,28.7127354 18.5148201,28.7051693 18.5237619,28.698291 C18.5333915,28.690037 18.543709,28.6817831 18.5533386,28.6810952 C18.5155079,28.6831587 18.6627037,31.9476032 18.6716455,32.253 C18.7129153,33.6265979 18.5223862,34.9933175 18.2376243,36.3332116 C18.2073598,36.4735291 18.1770952,36.6145344 18.1461429,36.754164 C17.9776243,37.5155926 17.7919101,38.2728942 17.5986296,39.0281323 C17.4810106,39.4869153 17.3599524,39.9456984 17.2375185,40.4037937 C17.2058783,40.5255397 16.8323862,41.7058571 16.8798466,41.7340582 C15.7022804,41.0359101 14.4215397,40.4691376 13.3657196,39.5832116 M20.6876772,23.681254 C19.8684709,18.0183439 17.9803757,12.1298254 15.3054021,5.08987831 C15.3054021,5.08987831 17.2320159,17.0746402 18.2293704,25.5989259 C13.4310635,29.4246402 9.9279418,32.7929471 9.53106349,35.0614127 C9.52968783,35.0676032 9.52968783,35.0744815 9.52831217,35.0813598 C8.95122222,38.1642169 12.7102169,40.7683439 14.8273598,42.3427884 C15.1279418,42.5670212 15.4326508,42.7850635 15.7435503,42.994164 C15.8267778,43.0498783 16.423127,43.3731587 16.3949259,43.4701429 C14.2550847,50.8540053 11.2795291,58.3651164 6.22672487,64.2687672 C2.62180423,65.4380794 0.545931217,66.4079206 1.94222751,66.9010952 C1.94222751,66.9010952 2.53651323,66.9746931 3.44857672,67.0819947 C3.00561376,67.4630529 2.59773016,67.7822063 2.22492593,68.0545873 C2.19947619,68.0724709 1.56942328,68.5058042 0.977888889,68.8847989 C0.221962963,69.335328 -0.145338624,69.4536349 0.0527566138,69.4261217 C1.68773016,69.1950106 3.31995238,69.5540582 4.95492593,69.4522593 C5.64550794,69.4096138 6.3663545,69.3036878 6.98540212,68.9762804 C7.20069312,68.8621005 8.38101058,67.6143757 8.35212169,67.6116243 C11.8215397,67.9438466 14.9800582,68.1226825 12.7349788,67.3825767 C11.6433915,67.0242169 9.91762434,66.8226825 8.93677778,66.4498783 C9.21466138,65.878291 9.48429101,65.3087672 9.70026984,64.8740582 C9.79450265,64.6938466 9.88873545,64.5122593 9.98296825,64.3320476 C14.5673598,62.1626296 26.7515926,59.589455 32.8024392,57.1118889 C33.2804815,56.916545 33.7227566,56.7156984 34.1244497,56.5134762 C36.7292646,55.1907778 37.5828624,53.7463333 35.3082063,52.5302487 C34.1340794,51.9036349 32.8196349,51.1710952 31.4322804,50.3842169 C28.1712751,48.5312011 24.5140794,46.3604074 21.3514339,44.4523651 C21.3514339,44.4523651 19.0300053,43.0003545 19.0300053,42.9996667 C20.5686825,37.6937407 21.4374127,32.2303016 21.0309048,26.699455 C21.2049259,26.5667037 21.3796349,26.4339524 21.5536561,26.3025767 C25.6696349,23.3538466 29.8660899,20.5351164 33.7482063,17.2747989 C38.1826508,13.5577619 44.8264074,7.56744444 48.0881005,3.19421693 C48.0757196,3.20797354 46.8080476,4.64897884 44.6633915,6.78262963 C47.4628624,3.65575132 48.9774656,1.45125397 49.5524921,0.557074074 C45.8794762,6.12162434 31.2135503,15.6301958 20.6876772,23.681254" id="Fill-1" fill="#E4254A" mask="url(#mask-2)"></path>
                </g>
                <path d="M28.9534074,10.2951058 C30.6035132,9.27780423 31.4447302,6.33457672 31.3752593,5.00018519 C31.2817143,3.2097619 28.9272698,2.3355291 27.4216085,2.84796296 C26.0266878,3.32256614 24.3291217,4.95547619 23.8256296,6.36208995 C22.5503915,9.92986772 25.908381,12.1728836 28.9534074,10.2951058" id="Fill-7" fill="#E4254A"></path>
                <path d="M51.8600265,22.5484656 C51.975582,22.0711111 52.1537302,21.6130159 52.3944709,21.1741799 C52.6358995,20.7353439 52.9763757,20.3817989 53.4152116,20.1128571 C53.8533598,19.8439153 54.3589153,19.7097884 54.929127,19.7097884 C55.4993386,19.7097884 56.0035185,19.8391005 56.4430423,20.097037 C56.8818783,20.3542857 57.2216667,20.6975132 57.4630952,21.1253439 C57.703836,21.5531746 57.882672,22.0112698 57.9982275,22.4989418 C58.1130952,22.9873016 58.170873,23.4942328 58.170873,24.0211111 C58.170873,24.525291 58.1130952,25.0164021 57.9982275,25.4937566 C57.882672,25.9711111 57.703836,26.4292063 57.4630952,26.8673545 C57.2216667,27.3061905 56.8818783,27.6604233 56.4430423,27.9286772 C56.0035185,28.197619 55.4993386,28.331746 54.929127,28.331746 C54.3589153,28.331746 53.8533598,28.2038095 53.4152116,27.945873 C52.9763757,27.6879365 52.6358995,27.344709 52.3944709,26.9175661 C52.1537302,26.4897354 51.975582,26.0309524 51.8600265,25.5432804 C51.7451587,25.0556085 51.687381,24.5473016 51.687381,24.0211111 C51.687381,23.5162434 51.7451587,23.0251323 51.8600265,22.5484656 M50.6178042,27.344709 C50.8702381,27.8708995 51.1832011,28.3262434 51.5560053,28.7107407 C51.9288095,29.0952381 52.4054762,29.4020106 52.987381,29.6324339 C53.5685979,29.8621693 54.2158466,29.9777249 54.929127,29.9777249 C55.6417196,29.9777249 56.2889683,29.8621693 56.870873,29.6324339 C57.4520899,29.4020106 57.9287566,29.0952381 58.3022487,28.7107407 C58.6750529,28.3262434 58.987328,27.8708995 59.2397619,27.344709 C59.4928836,26.8185185 59.6730952,26.2813228 59.7831481,25.7324339 C59.8932011,25.183545 59.9475397,24.6133333 59.9475397,24.0211111 C59.9475397,23.4282011 59.8932011,22.8579894 59.7831481,22.3091005 C59.6730952,21.7608995 59.4928836,21.2237037 59.2397619,20.6975132 C58.987328,20.1706349 58.6750529,19.715291 58.3022487,19.3307937 C57.9287566,18.947672 57.4520899,18.6402116 56.870873,18.4097884 C56.2889683,18.1793651 55.6417196,18.0638095 54.929127,18.0638095 C54.2158466,18.0638095 53.5685979,18.1793651 52.987381,18.4097884 C52.4054762,18.6402116 51.9288095,18.947672 51.5560053,19.3307937 C51.1832011,19.715291 50.8702381,20.1706349 50.6178042,20.6975132 C50.3653704,21.2237037 50.1837831,21.7608995 50.074418,22.3091005 C49.9650529,22.8579894 49.9100265,23.4282011 49.9100265,24.0211111 C49.9100265,24.6133333 49.9650529,25.183545 50.074418,25.7324339 C50.1837831,26.2813228 50.3653704,26.8185185 50.6178042,27.344709" id="Fill-9" fill="#000000"></path>
                <path d="M63.9628889,25.0572593 C63.9628889,24.2786349 64.1327831,23.7166772 64.4725714,23.3706984 C64.8123598,23.0254074 65.2133651,22.8527619 65.6742116,22.8527619 C66.156381,22.8527619 66.6014074,22.9896402 67.0072275,23.2640847 L67.2534709,21.6841376 C66.8586561,21.3443492 66.3868042,21.1737672 65.839291,21.1737672 C64.9609312,21.1737672 64.3356931,21.5795873 63.9628889,22.3919153 L63.9628889,21.3718624 L62.2515661,21.3718624 L62.2515661,29.7799048 L63.9628889,29.7799048 L63.9628889,25.0572593 Z" id="Fill-11" fill="#000000"></path>
                <path d="M72.1080423,28.3647619 C71.4828042,28.3647619 70.9889418,28.1075132 70.6271429,27.5916402 C70.2646561,27.0757672 70.0844444,26.4016931 70.0844444,25.5680423 C70.0844444,24.6793651 70.2591534,23.9935979 70.6099471,23.5107407 C70.9614286,23.0278836 71.4607937,22.7871429 72.1080423,22.7871429 C72.5138624,22.7871429 72.8674074,22.8772487 73.1693651,23.0581481 C73.4706349,23.2390476 73.6983069,23.4557143 73.8516931,23.7081481 L73.8516931,27.4100529 C73.4568783,28.0469841 72.8756614,28.3647619 72.1080423,28.3647619 L72.1080423,28.3647619 Z M73.8516931,29.7803175 L75.5630159,29.7803175 L75.5630159,17.899418 L73.8516931,18.6897354 L73.8516931,21.9638095 C73.3475132,21.437619 72.6837566,21.1741799 71.8611111,21.1741799 C70.8183598,21.1741799 69.976455,21.5662434 69.3353968,22.3510582 C68.6936508,23.1344974 68.3724339,24.2075132 68.3724339,25.5680423 C68.3724339,26.9388889 68.6874603,28.0167196 69.3182011,28.8008466 C69.9489418,29.5849735 70.797037,29.9777249 71.8611111,29.9777249 C72.7167725,29.9777249 73.3805291,29.7142857 73.8516931,29.1874074 L73.8516931,29.7803175 Z" id="Fill-13" fill="#000000"></path>
                <path d="M81.4542169,22.8527619 C81.9363862,22.8527619 82.3814127,22.9896402 82.786545,23.2640847 L83.0334762,21.6841376 C82.6386614,21.3443492 82.1668095,21.174455 81.6186085,21.174455 C80.7409365,21.174455 80.1156984,21.5795873 79.7428942,22.3919153 L79.7428942,21.3718624 L78.0308836,21.3718624 L78.0308836,29.7799048 L79.7428942,29.7799048 L79.7428942,25.0572593 C79.7428942,24.2786349 79.9127884,23.7166772 80.2525767,23.3706984 C80.5923651,23.0254074 80.9933704,22.8527619 81.4542169,22.8527619" id="Fill-15" fill="#000000"></path>
                <path d="M86.5135556,23.2060317 C86.9028677,22.8607407 87.3877884,22.6880952 87.9696931,22.6880952 C88.4855661,22.6880952 88.9299048,22.8634921 89.302709,23.2149735 C89.6755132,23.5657672 89.867418,24.1036508 89.8791111,24.8265608 L85.8642434,24.8265608 C85.9075767,24.0919577 86.1242434,23.5520106 86.5135556,23.2060317 L86.5135556,23.2060317 Z M89.7305397,27.6074603 C89.2917037,28.1790476 88.7104868,28.4638095 87.9868889,28.4638095 C87.4269947,28.4638095 86.9358836,28.2553968 86.5135556,27.8378836 C86.0912275,27.421746 85.8745608,26.8783598 85.8642434,26.2091005 L91.5237143,26.2091005 C91.5684233,25.9456614 91.589746,25.5783598 91.589746,25.1071958 C91.589746,23.8230159 91.2499577,22.847672 90.5696931,22.1777249 C89.8894286,21.5084656 89.0227619,21.1741799 87.9696931,21.1741799 C86.8072593,21.1741799 85.8800635,21.5634921 85.1887937,22.3421164 C84.4975238,23.1214286 84.1522328,24.1958201 84.1522328,25.5680423 C84.1522328,26.9388889 84.4947725,28.0167196 85.1812275,28.8008466 C85.8663069,29.5849735 86.7955661,29.9777249 87.9696931,29.9777249 C89.209164,29.9777249 90.1686878,29.5719048 90.8496402,28.7595767 L89.7305397,27.6074603 Z" id="Fill-17" fill="#000000"></path>
                <path d="M102.581487,27.410328 C102.186672,28.0472593 101.605455,28.365037 100.837836,28.365037 C100.212598,28.365037 99.7187354,28.1077884 99.3569365,27.5919153 C98.9944497,27.0760423 98.8135503,26.4012804 98.8135503,25.5676296 C98.8135503,24.6789524 98.9889471,23.9931852 99.3397407,23.5110159 C99.6912222,23.0281587 100.189899,22.7867302 100.837836,22.7867302 C101.243656,22.7867302 101.596513,22.8775238 101.899159,23.0584233 C102.200429,23.2393228 102.427413,23.4559894 102.581487,23.7084233 L102.581487,27.410328 Z M102.581487,21.9640847 C102.077307,21.4372063 101.41355,21.174455 100.590217,21.174455 C99.5481534,21.174455 98.7062487,21.5665185 98.0651905,22.3513333 C97.4234444,23.1347725 97.1022275,24.2077884 97.1022275,25.5676296 C97.1022275,26.9384762 97.417254,28.0169947 98.0479947,28.8004339 C98.6787354,29.5852487 99.5268307,29.9773122 100.590217,29.9773122 C101.446566,29.9773122 102.109635,29.7145608 102.581487,29.1876825 L102.581487,29.7799048 L104.29281,29.7799048 L104.29281,17.8996931 L102.581487,18.6893228 L102.581487,21.9640847 Z" id="Fill-19" fill="#000000"></path>
                <path d="M108.710884,23.2060317 C109.100196,22.8607407 109.585116,22.6880952 110.167021,22.6880952 C110.682894,22.6880952 111.127233,22.8634921 111.500037,23.2149735 C111.872841,23.5657672 112.064746,24.1036508 112.076439,24.8265608 L108.061571,24.8265608 C108.104905,24.0919577 108.321571,23.5520106 108.710884,23.2060317 M110.167021,29.9777249 C111.406492,29.9777249 112.366016,29.5719048 113.046968,28.7595767 L111.927868,27.6074603 C111.489032,28.1790476 110.907815,28.4638095 110.184217,28.4638095 C109.624323,28.4638095 109.133212,28.2553968 108.710884,27.8378836 C108.288556,27.421746 108.071889,26.8783598 108.061571,26.2091005 L113.721042,26.2091005 C113.765751,25.9456614 113.787074,25.5783598 113.787074,25.1071958 C113.787074,23.8230159 113.447286,22.847672 112.767021,22.1777249 C112.086757,21.5084656 111.22009,21.1741799 110.167021,21.1741799 C109.004587,21.1741799 108.077392,21.5634921 107.386122,22.3421164 C106.694852,23.1214286 106.349561,24.1958201 106.349561,25.5680423 C106.349561,26.9388889 106.692101,28.0167196 107.378556,28.8008466 C108.063635,29.5849735 108.992894,29.9777249 110.167021,29.9777249" id="Fill-21" fill="#000000"></path>
                <path d="M120.854672,25.7981905 C120.410333,25.3703598 119.711497,24.9975556 118.756788,24.6790899 C118.185889,24.459672 117.772503,24.2705185 117.514566,24.1116296 C117.25663,23.9520529 117.128005,23.7470794 117.128005,23.4939577 C117.128005,23.2532169 117.234619,23.0633757 117.448534,22.9264974 C117.66245,22.789619 117.949963,22.720836 118.31245,22.720836 C119.00372,22.720836 119.573931,22.9567619 120.023772,23.4286138 L121.257741,22.4408889 C120.555466,21.5969206 119.573931,21.1739048 118.31245,21.1739048 C117.467794,21.1739048 116.76827,21.3795661 116.214566,21.7915767 C115.660175,22.2022116 115.383667,22.7703598 115.383667,23.4939577 C115.383667,24.1522116 115.599646,24.6900952 116.032979,25.1069206 C116.466312,25.5244339 117.143825,25.8862328 118.065519,26.1930053 C118.482344,26.3573968 118.783614,26.4805185 118.970704,26.5630582 C119.157106,26.6449101 119.343508,26.7742222 119.52991,26.9503069 C119.717,27.1257037 119.809857,27.3176085 119.809857,27.5260212 C119.809857,28.1292487 119.316683,28.4305185 118.328958,28.4305185 C117.648693,28.4305185 117.006947,28.1457566 116.40372,27.5748571 L115.186259,28.6121058 C115.482026,29.0289312 115.920862,29.3604656 116.502767,29.6073968 C117.083984,29.8536402 117.70372,29.9774497 118.361974,29.9774497 C119.338005,29.9774497 120.108376,29.7669735 120.673772,29.3439577 C121.239169,28.9216296 121.52118,28.3156508 121.52118,27.5260212 C121.52118,26.8017354 121.299011,26.2260212 120.854672,25.7981905" id="Fill-23" fill="#000000"></path>
                <path d="M58.631582,40.9197354 C57.4904709,40.9197354 56.6623228,41.3200529 56.1471376,42.1206878 C55.6966085,41.3200529 54.9503122,40.9197354 53.9089365,40.9197354 C52.9432222,40.9197354 52.2354444,41.2437037 51.786291,41.8902646 L51.786291,41.1171429 L50.0749683,41.1171429 L50.0749683,49.525873 L51.786291,49.525873 L51.786291,44.5728042 C51.786291,43.9255556 51.9451799,43.424127 52.2629577,43.0671429 C52.5814233,42.7108466 52.9817407,42.5326984 53.4645979,42.5326984 C54.4956561,42.5326984 55.0108413,43.1854497 55.0108413,44.4902646 L55.0108413,49.525873 L56.7228519,49.525873 L56.7228519,44.5728042 C56.7228519,43.9255556 56.8817407,43.424127 57.1995185,43.0671429 C57.5179841,42.7108466 57.9183016,42.5326984 58.4011587,42.5326984 C59.4322169,42.5326984 59.9474021,43.1854497 59.9474021,44.4902646 L59.9474021,49.525873 L61.6587249,49.525873 L61.6587249,44.0954497 C61.6587249,43.0313757 61.3822169,42.2362434 60.8278254,41.7093651 C60.2741217,41.1831746 59.541582,40.9197354 58.631582,40.9197354" id="Fill-25" fill="#000000"></path>
                <path d="M68.849582,47.3043175 C68.3123862,47.907545 67.6486296,48.2088148 66.8583122,48.2088148 C66.3211164,48.2088148 65.9097937,48.0939471 65.6250317,47.8635238 C65.3388942,47.6337884 65.1965132,47.3153228 65.1965132,46.9095026 C65.1965132,46.4706667 65.3691587,46.1439471 65.7151376,45.9300317 C66.0604286,45.7161164 66.5075185,45.6095026 67.0564074,45.6095026 C67.736672,45.6095026 68.3343968,45.746381 68.849582,46.0208254 L68.849582,47.3043175 Z M69.4087884,41.4384974 C69.069,41.2355873 68.7347143,41.098709 68.4052434,41.0264868 C68.0764603,40.9556402 67.7036561,40.919873 67.2868307,40.919873 C66.0356667,40.919873 64.9887884,41.2108254 64.1434444,41.7913545 L64.6538148,43.1910899 C65.3340794,42.6862222 66.1347143,42.4337884 67.0564074,42.4337884 C67.6816455,42.4337884 68.1369894,42.565164 68.4217513,42.8286032 C68.7072011,43.0920423 68.849582,43.5356931 68.849582,44.161619 L68.849582,44.6224656 C68.2903757,44.2929947 67.5997937,44.1286032 66.7764603,44.1286032 C65.8767778,44.1286032 65.1146614,44.3645291 64.4894233,44.8356931 C63.8641852,45.3082328 63.5512222,45.9995026 63.5512222,46.9095026 C63.5512222,47.8084974 63.828418,48.5025185 64.3821217,48.9908783 C64.9365132,49.4792381 65.6573598,49.723418 66.546037,49.723418 C67.4890529,49.723418 68.2573598,49.4159577 68.849582,48.8017249 L68.849582,49.5253228 L70.4955608,49.5253228 L70.4955608,44.0797672 C70.4955608,43.4208254 70.3992646,42.8671217 70.2073598,42.4172804 C70.0147672,41.9674392 69.7492646,41.6414074 69.4087884,41.4384974 L69.4087884,41.4384974 Z" id="Fill-27" fill="#000000"></path>
                <path d="M75.7937143,44.4247143 C75.2228148,44.2052963 74.8087407,44.0161429 74.5508042,43.857254 C74.2928677,43.6976772 74.1649312,43.4927037 74.1649312,43.239582 C74.1649312,42.9988413 74.271545,42.809 74.4854603,42.6721217 C74.6993757,42.5352434 74.9868889,42.4664603 75.3493757,42.4664603 C76.0399577,42.4664603 76.6101693,42.7023862 77.0606984,43.1742381 L78.2946667,42.1865132 C77.5923915,41.342545 76.6101693,40.9195291 75.3493757,40.9195291 C74.5047196,40.9195291 73.8045079,41.1251905 73.2514921,41.5372011 C72.6971005,41.947836 72.4205926,42.5159841 72.4205926,43.239582 C72.4205926,43.897836 72.6365714,44.4357196 73.0699048,44.852545 C73.5032381,45.2700582 74.1807513,45.6318571 75.1024444,45.9386296 C75.5192698,46.1030212 75.8205397,46.2261429 76.0076296,46.3086825 C76.1940317,46.3905344 76.3804339,46.5198466 76.566836,46.6959312 C76.7539259,46.871328 76.8467831,47.0632328 76.8467831,47.2716455 C76.8467831,47.874873 76.3529206,48.1761429 75.3658836,48.1761429 C74.685619,48.1761429 74.043873,47.891381 73.4406455,47.3204815 L72.2231852,48.3577302 C72.5189524,48.7745556 72.9577884,49.1060899 73.5396931,49.3530212 C74.1202222,49.5992646 74.7406455,49.7230741 75.3988995,49.7230741 C76.3749312,49.7230741 77.1453016,49.5119101 77.7106984,49.089582 C78.2754074,48.667254 78.5581058,48.0612751 78.5581058,47.2716455 C78.5581058,46.5473598 78.3359365,45.9716455 77.8915979,45.5438148 C77.4472593,45.1159841 76.7484233,44.7431799 75.7937143,44.4247143" id="Fill-29" fill="#000000"></path>
                <path d="M83.6097407,44.4247143 C83.0388413,44.2052963 82.6247672,44.0161429 82.3668307,43.857254 C82.1088942,43.6976772 81.9809577,43.4927037 81.9809577,43.239582 C81.9809577,42.9988413 82.0875714,42.809 82.3014868,42.6721217 C82.5154021,42.5352434 82.8029153,42.4664603 83.1654021,42.4664603 C83.8559841,42.4664603 84.4261958,42.7023862 84.8767249,43.1742381 L86.1106931,42.1865132 C85.408418,41.342545 84.4261958,40.9195291 83.1654021,40.9195291 C82.320746,40.9195291 81.6205344,41.1251905 81.0675185,41.5372011 C80.513127,41.947836 80.236619,42.5159841 80.236619,43.239582 C80.236619,43.897836 80.4525979,44.4357196 80.8859312,44.852545 C81.3192646,45.2700582 81.9967778,45.6318571 82.9184709,45.9386296 C83.3352963,46.1030212 83.6365661,46.2261429 83.8236561,46.3086825 C84.0100582,46.3905344 84.1964603,46.5198466 84.3828624,46.6959312 C84.5699524,46.871328 84.6628095,47.0632328 84.6628095,47.2716455 C84.6628095,47.874873 84.1689471,48.1761429 83.1819101,48.1761429 C82.5016455,48.1761429 81.8598995,47.891381 81.256672,47.3204815 L80.0392116,48.3577302 C80.3349788,48.7745556 80.7738148,49.1060899 81.3557196,49.3530212 C81.9362487,49.5992646 82.556672,49.7230741 83.2149259,49.7230741 C84.1909577,49.7230741 84.961328,49.5119101 85.5267249,49.089582 C86.0914339,48.667254 86.3741323,48.0612751 86.3741323,47.2716455 C86.3741323,46.5473598 86.151963,45.9716455 85.7076243,45.5438148 C85.2632857,45.1159841 84.5644497,44.7431799 83.6097407,44.4247143" id="Fill-31" fill="#000000"></path>
                <path d="M89.7310212,44.5724603 C89.7743545,43.8378571 89.9910212,43.2972222 90.3803333,42.9519312 C90.7703333,42.6066402 91.255254,42.4339947 91.8371587,42.4339947 C92.3530317,42.4339947 92.7966825,42.6093915 93.1694868,42.9601852 C93.542291,43.3116667 93.7341958,43.8488624 93.7458889,44.5724603 L89.7310212,44.5724603 Z M91.8371587,40.9193915 C90.674037,40.9193915 89.7468413,41.3093915 89.0562593,42.0880159 C88.3649894,42.867328 88.0196984,43.9417196 88.0196984,45.313254 C88.0196984,46.6841005 88.3622381,47.762619 89.0480053,48.5460582 C89.7330847,49.330873 90.6623439,49.7229365 91.8371587,49.7229365 C93.0759418,49.7229365 94.0361534,49.3171164 94.716418,48.5054762 L93.5973175,47.3533598 C93.1584815,47.9242593 92.5779524,48.2090212 91.8536667,48.2090212 C91.2937725,48.2090212 90.8033492,48.0006085 90.3803333,47.5837831 C89.9580053,47.1669577 89.7420265,46.6235714 89.7310212,45.955 L95.3911799,45.955 C95.4352011,45.6915608 95.4565238,45.3242593 95.4565238,44.8524074 C95.4565238,43.5689153 95.1167354,42.5928836 94.4371587,41.9229365 C93.7568942,41.2543651 92.8902275,40.9193915 91.8371587,40.9193915 L91.8371587,40.9193915 Z" id="Fill-33" fill="#000000"></path>
                <path d="M102.549296,46.1691217 C102.549296,47.463619 101.945381,48.1101799 100.738926,48.1101799 C100.234746,48.1101799 99.8282381,47.9492275 99.5214656,47.6252593 C99.2140053,47.301291 99.060619,46.8053651 99.060619,46.1361058 L99.060619,41.1170053 L97.3492963,41.1170053 L97.3492963,46.1361058 C97.3492963,48.5276931 98.3583439,49.7231429 100.377127,49.7231429 C101.29882,49.7231429 102.022418,49.3888571 102.549296,48.7195979 L102.549296,49.5257354 L104.260619,49.5257354 L104.260619,41.1170053 L102.549296,41.1170053 L102.549296,46.1691217 Z" id="Fill-35" fill="#000000"></path>
                <path d="M108.439466,42.1375397 L108.439466,41.1174868 L106.728143,41.1174868 L106.728143,49.5255291 L108.439466,49.5255291 L108.439466,44.8028836 C108.439466,44.0242593 108.60936,43.4623016 108.949148,43.1163228 C109.288937,42.7710317 109.689942,42.5983862 110.150788,42.5983862 C110.632958,42.5983862 111.077984,42.7352646 111.483804,43.009709 L111.730048,41.4297619 C111.335233,41.0899735 110.863381,40.9193915 110.315868,40.9193915 C109.437508,40.9193915 108.81227,41.3252116 108.439466,42.1375397" id="Fill-37" fill="#000000"></path>
                <path d="M116.255492,44.4247143 C115.684593,44.2052963 115.270519,44.0161429 115.012582,43.857254 C114.754646,43.6976772 114.626709,43.4927037 114.626709,43.239582 C114.626709,42.9988413 114.733323,42.809 114.947238,42.6721217 C115.161153,42.5352434 115.448667,42.4664603 115.811153,42.4664603 C116.501735,42.4664603 117.071947,42.7023862 117.522476,43.1742381 L118.756444,42.1865132 C118.054169,41.342545 117.071947,40.9195291 115.811153,40.9195291 C114.966497,40.9195291 114.266286,41.1251905 113.71327,41.5372011 C113.158878,41.947836 112.88237,42.5159841 112.88237,43.239582 C112.88237,43.897836 113.098349,44.4357196 113.531683,44.852545 C113.965016,45.2700582 114.642529,45.6318571 115.564222,45.9386296 C115.981048,46.1030212 116.282317,46.2261429 116.469407,46.3086825 C116.65581,46.3905344 116.842212,46.5198466 117.028614,46.6959312 C117.215704,46.871328 117.308561,47.0632328 117.308561,47.2716455 C117.308561,47.874873 116.814698,48.1761429 115.827661,48.1761429 C115.147397,48.1761429 114.505651,47.891381 113.902423,47.3204815 L112.684963,48.3577302 C112.98073,48.7745556 113.419566,49.1060899 114.001471,49.3530212 C114.582,49.5992646 115.202423,49.7230741 115.860677,49.7230741 C116.836709,49.7230741 117.607079,49.5119101 118.172476,49.089582 C118.737185,48.667254 119.019884,48.0612751 119.019884,47.2716455 C119.019884,46.5473598 118.797714,45.9716455 118.353376,45.5438148 C117.909037,45.1159841 117.210201,44.7431799 116.255492,44.4247143" id="Fill-39" fill="#000000"></path>
                <mask id="mask-4" fill="white">
                    <use xlink:href="#path-3"></use>
                </mask>
                <g id="Clip-42"></g>
                <polygon id="Fill-41" fill="#000000" mask="url(#mask-4)" points="121.076085 45.4614815 125.10746 45.4614815 125.10746 43.8161905 121.076085 43.8161905"></polygon>
                <polygon id="Fill-43" fill="#000000" mask="url(#mask-4)" points="133.878471 41.1172116 131.771646 41.1172116 129.287201 43.7172116 129.287201 37.6450423 127.575878 38.4518677 127.575878 49.5259418 129.287201 49.5259418 129.287201 45.7745132 130.373286 44.6877407 132.858418 49.5259418 134.733444 49.5259418 131.574238 43.4537725"></polygon>
                <path d="M137.498317,37.7277884 C137.212868,37.7277884 136.968,37.8288995 136.765778,38.0318095 C136.562868,38.2347196 136.461069,38.4788995 136.461069,38.7643492 C136.461069,39.0497989 136.562868,39.293291 136.765778,39.4962011 C136.968,39.6991111 137.212868,39.8009101 137.498317,39.8009101 C137.783079,39.8009101 138.027259,39.6991111 138.230169,39.4962011 C138.433079,39.293291 138.534878,39.0497989 138.534878,38.7643492 C138.534878,38.4788995 138.433079,38.2347196 138.230169,38.0318095 C138.027259,37.8288995 137.783079,37.7277884 137.498317,37.7277884" id="Fill-44" fill="#000000" mask="url(#mask-4)"></path>
                <polygon id="Fill-45" fill="#000000" mask="url(#mask-4)" points="136.642381 49.525873 138.353016 49.525873 138.353016 41.1171429 136.642381 41.1171429"></polygon>
                <path d="M144.721915,40.9197354 C143.800222,40.9197354 143.075937,41.2540212 142.549746,41.9232804 L142.549746,41.1171429 L140.838423,41.1171429 L140.838423,49.525873 L142.549746,49.525873 L142.549746,44.4737566 C142.549746,43.1799471 143.152974,42.5326984 144.360116,42.5326984 C144.864296,42.5326984 145.270116,42.6943386 145.576889,43.017619 C145.883661,43.3415873 146.037735,43.8375132 146.037735,44.5067725 L146.037735,49.525873 L147.749058,49.525873 L147.749058,44.5067725 C147.749058,42.1151852 146.740011,40.9197354 144.721915,40.9197354" id="Fill-46" fill="#000000" mask="url(#mask-4)"></path>
                <polygon id="Fill-47" fill="#000000" mask="url(#mask-4)" points="156.15772 37.480582 153.821847 37.480582 151.484598 40.0475661 153.228937 40.0475661"></polygon>
                <path d="M151.435624,44.5724603 C151.478958,43.8378571 151.695624,43.2972222 152.084937,42.9519312 C152.474937,42.6066402 152.959857,42.4339947 153.541762,42.4339947 C154.057635,42.4339947 154.501286,42.6093915 154.87409,42.9601852 C155.246894,43.3116667 155.438799,43.8488624 155.450492,44.5724603 L151.435624,44.5724603 Z M153.541762,40.9193915 C152.37864,40.9193915 151.451444,41.3093915 150.760862,42.0880159 C150.069593,42.867328 149.724302,43.9417196 149.724302,45.313254 C149.724302,46.6841005 150.066841,47.762619 150.752608,48.5460582 C151.437688,49.330873 152.366947,49.7229365 153.541762,49.7229365 C154.780545,49.7229365 155.740757,49.3171164 156.421021,48.5054762 L155.301921,47.3533598 C154.863085,47.9242593 154.282556,48.2090212 153.55827,48.2090212 C152.998376,48.2090212 152.507952,48.0006085 152.084937,47.5837831 C151.662608,47.1669577 151.44663,46.6235714 151.435624,45.955 L157.095783,45.955 C157.139804,45.6915608 157.161127,45.3242593 157.161127,44.8524074 C157.161127,43.5689153 156.821339,42.5928836 156.141762,41.9229365 C155.461497,41.2543651 154.594831,40.9193915 153.541762,40.9193915 L153.541762,40.9193915 Z" id="Fill-48" fill="#000000" mask="url(#mask-4)"></path>
                <path d="M162.130566,44.4247143 C161.559667,44.2052963 161.145593,44.0161429 160.887656,43.857254 C160.62972,43.6976772 160.501783,43.4927037 160.501783,43.239582 C160.501783,42.9988413 160.608397,42.809 160.822312,42.6721217 C161.036228,42.5352434 161.323741,42.4664603 161.686228,42.4664603 C162.37681,42.4664603 162.947021,42.7023862 163.39755,43.1742381 L164.631519,42.1865132 C163.929243,41.342545 162.947021,40.9195291 161.686228,40.9195291 C160.841571,40.9195291 160.14136,41.1251905 159.588344,41.5372011 C159.033952,41.947836 158.757444,42.5159841 158.757444,43.239582 C158.757444,43.897836 158.973423,44.4357196 159.406757,44.852545 C159.84009,45.2700582 160.517603,45.6318571 161.439296,45.9386296 C161.856122,46.1030212 162.157392,46.2261429 162.344481,46.3086825 C162.530884,46.3905344 162.717286,46.5198466 162.903688,46.6959312 C163.090778,46.871328 163.183635,47.0632328 163.183635,47.2716455 C163.183635,47.874873 162.689772,48.1761429 161.702735,48.1761429 C161.022471,48.1761429 160.380725,47.891381 159.777497,47.3204815 L158.560037,48.3577302 C158.855804,48.7745556 159.29464,49.1060899 159.876545,49.3530212 C160.457074,49.5992646 161.077497,49.7230741 161.735751,49.7230741 C162.711783,49.7230741 163.482153,49.5119101 164.04755,49.089582 C164.612259,48.667254 164.894958,48.0612751 164.894958,47.2716455 C164.894958,46.5473598 164.672788,45.9716455 164.22845,45.5438148 C163.784111,45.1159841 163.085275,44.7431799 162.130566,44.4247143" id="Fill-49" fill="#000000" mask="url(#mask-4)"></path>
                <polygon id="Fill-50" fill="#000000" mask="url(#mask-4)" points="166.968148 49.525873 168.678783 49.525873 168.678783 41.1171429 166.968148 41.1171429"></polygon>
                <path d="M167.824016,37.7277884 C167.538566,37.7277884 167.293698,37.8288995 167.091476,38.0318095 C166.888566,38.2347196 166.786767,38.4788995 166.786767,38.7643492 C166.786767,39.0497989 166.888566,39.293291 167.091476,39.4962011 C167.293698,39.6991111 167.538566,39.8009101 167.824016,39.8009101 C168.108778,39.8009101 168.352958,39.6991111 168.555868,39.4962011 C168.758778,39.293291 168.860577,39.0497989 168.860577,38.7643492 C168.860577,38.4788995 168.758778,38.2347196 168.555868,38.0318095 C168.352958,37.8288995 168.108778,37.7277884 167.824016,37.7277884" id="Fill-51" fill="#000000" mask="url(#mask-4)"></path>
                <path d="M173.434788,47.1887619 L173.434788,42.5981799 L175.426058,42.5981799 L175.426058,41.1172804 L173.434788,41.1172804 L173.434788,37.6451111 L171.723466,38.4677566 L171.723466,41.1172804 L170.423466,41.1172804 L170.423466,42.5981799 L171.723466,42.5981799 L171.723466,47.6331005 C171.723466,49.0266455 172.348704,49.723418 173.59918,49.723418 C174.224418,49.723418 174.789815,49.5968571 175.293995,49.3451111 L175.50791,47.7479683 C175.080767,48.0114074 174.663254,48.1434709 174.257434,48.1434709 C173.708545,48.1434709 173.434788,47.8256931 173.434788,47.1887619" id="Fill-52" fill="#000000" mask="url(#mask-4)"></path>
                <path d="M181.284381,40.9197354 C180.362688,40.9197354 179.638402,41.2540212 179.112212,41.9232804 L179.112212,37.6449735 L177.400889,38.435291 L177.400889,49.525873 L179.112212,49.525873 L179.112212,44.4737566 C179.112212,43.1799471 179.715439,42.5326984 180.922582,42.5326984 C181.426762,42.5326984 181.832582,42.6943386 182.139354,43.017619 C182.446127,43.3415873 182.600201,43.8375132 182.600201,44.5067725 L182.600201,49.525873 L184.311524,49.525873 L184.311524,44.5067725 C184.311524,42.1151852 183.302476,40.9197354 181.284381,40.9197354" id="Fill-53" fill="#000000" mask="url(#mask-4)"></path>
                <path d="M187.997471,44.5724603 C188.040804,43.8378571 188.257471,43.2972222 188.646783,42.9519312 C189.036783,42.6066402 189.521704,42.4339947 190.103608,42.4339947 C190.619481,42.4339947 191.063132,42.6093915 191.435937,42.9601852 C191.808741,43.3116667 192.000646,43.8488624 192.012339,44.5724603 L187.997471,44.5724603 Z M190.103608,40.9193915 C188.940487,40.9193915 188.013291,41.3093915 187.322709,42.0880159 C186.631439,42.867328 186.286148,43.9417196 186.286148,45.313254 C186.286148,46.6841005 186.628688,47.762619 187.314455,48.5460582 C187.999534,49.330873 188.928794,49.7229365 190.103608,49.7229365 C191.342392,49.7229365 192.302603,49.3171164 192.982868,48.5054762 L191.863767,47.3533598 C191.424931,47.9242593 190.844402,48.2090212 190.120116,48.2090212 C189.560222,48.2090212 189.069799,48.0006085 188.646783,47.5837831 C188.224455,47.1669577 188.008476,46.6235714 187.997471,45.955 L193.65763,45.955 C193.701651,45.6915608 193.722974,45.3242593 193.722974,44.8524074 C193.722974,43.5689153 193.383185,42.5928836 192.703608,41.9229365 C192.023344,41.2543651 191.156677,40.9193915 190.103608,40.9193915 L190.103608,40.9193915 Z" id="Fill-54" fill="#000000" mask="url(#mask-4)"></path>
                <polygon id="Fill-55" fill="#000000" mask="url(#mask-4)" points="192.719566 37.480582 190.383693 37.480582 188.046444 40.0475661 189.790783 40.0475661"></polygon>
                <path d="M197.409471,42.1375397 L197.409471,41.1174868 L195.698148,41.1174868 L195.698148,49.5255291 L197.409471,49.5255291 L197.409471,44.8028836 C197.409471,44.0242593 197.579365,43.4623016 197.919153,43.1163228 C198.258942,42.7710317 198.659947,42.5983862 199.120794,42.5983862 C199.602963,42.5983862 200.047989,42.7352646 200.45381,43.009709 L200.700053,41.4297619 C200.305238,41.0899735 199.833386,40.9193915 199.285873,40.9193915 C198.407513,40.9193915 197.782275,41.3252116 197.409471,42.1375397" id="Fill-56" fill="#000000" mask="url(#mask-4)"></path>
                <path d="M207.035042,47.3043175 C206.497847,47.907545 205.83409,48.2088148 205.043772,48.2088148 C204.506577,48.2088148 204.095254,48.0939471 203.810492,47.8635238 C203.524354,47.6337884 203.381974,47.3153228 203.381974,46.9095026 C203.381974,46.4706667 203.554619,46.1439471 203.900598,45.9300317 C204.245889,45.7161164 204.692979,45.6095026 205.241868,45.6095026 C205.922132,45.6095026 206.519857,45.746381 207.035042,46.0208254 L207.035042,47.3043175 Z M207.594249,41.4384974 C207.25446,41.2355873 206.920175,41.098709 206.590704,41.0264868 C206.261921,40.9556402 205.889116,40.919873 205.472291,40.919873 C204.221127,40.919873 203.174249,41.2108254 202.328905,41.7913545 L202.839275,43.1910899 C203.51954,42.6862222 204.320175,42.4337884 205.241868,42.4337884 C205.867106,42.4337884 206.32245,42.565164 206.607212,42.8286032 C206.892661,43.0920423 207.035042,43.5356931 207.035042,44.161619 L207.035042,44.6224656 C206.475836,44.2929947 205.785254,44.1286032 204.961921,44.1286032 C204.062238,44.1286032 203.300122,44.3645291 202.674884,44.8356931 C202.049646,45.3082328 201.736683,45.9995026 201.736683,46.9095026 C201.736683,47.8084974 202.013878,48.5025185 202.567582,48.9908783 C203.121974,49.4792381 203.84282,49.723418 204.731497,49.723418 C205.674513,49.723418 206.44282,49.4159577 207.035042,48.8017249 L207.035042,49.5253228 L208.681021,49.5253228 L208.681021,44.0797672 C208.681021,43.4208254 208.584725,42.8671217 208.39282,42.4172804 C208.200228,41.9674392 207.934725,41.6414074 207.594249,41.4384974 L207.594249,41.4384974 Z" id="Fill-57" fill="#000000" mask="url(#mask-4)"></path>
                <path d="M215.954005,47.3949735 C215.614217,47.8716402 215.120354,48.1103175 214.473794,48.1103175 C213.770831,48.1103175 213.178608,47.787037 212.696439,47.1397884 L212.696439,43.4867196 C213.091254,42.851164 213.683476,42.5326984 214.473794,42.5326984 C215.099032,42.5326984 215.586704,42.7906349 215.938185,43.3058201 C216.288291,43.8216931 216.464376,44.4957672 216.464376,45.329418 C216.464376,46.2297884 216.293794,46.917619 215.954005,47.3949735 M214.720037,40.9197354 C213.897392,40.9197354 213.22263,41.2106878 212.696439,41.7919048 L212.696439,41.1171429 L210.984429,41.1171429 L210.984429,52.832963 L212.696439,52.0433333 L212.696439,48.8015873 C213.189614,49.4158201 213.864376,49.7232804 214.720037,49.7232804 C215.762101,49.7232804 216.598503,49.3305291 217.229243,48.5464021 C217.859984,47.7622751 218.175011,46.6899471 218.175011,45.329418 C218.175011,43.9585714 217.865487,42.8807407 217.245751,42.0966138 C216.626704,41.3117989 215.784111,40.9197354 214.720037,40.9197354" id="Fill-58" fill="#000000" mask="url(#mask-4)"></path>
                <path d="M221.532587,44.5724603 C221.575921,43.8378571 221.792587,43.2972222 222.181899,42.9519312 C222.571899,42.6066402 223.05682,42.4339947 223.638725,42.4339947 C224.154598,42.4339947 224.598249,42.6093915 224.971053,42.9601852 C225.343857,43.3116667 225.535762,43.8488624 225.547455,44.5724603 L221.532587,44.5724603 Z M223.638725,40.9193915 C222.475603,40.9193915 221.548407,41.3093915 220.857825,42.0880159 C220.166556,42.867328 219.821265,43.9417196 219.821265,45.313254 C219.821265,46.6841005 220.163804,47.762619 220.849571,48.5460582 C221.534651,49.330873 222.46391,49.7229365 223.638725,49.7229365 C224.877508,49.7229365 225.83772,49.3171164 226.517984,48.5054762 L225.398884,47.3533598 C224.960048,47.9242593 224.379519,48.2090212 223.655233,48.2090212 C223.095339,48.2090212 222.604915,48.0006085 222.181899,47.5837831 C221.759571,47.1669577 221.543593,46.6235714 221.532587,45.955 L227.192746,45.955 C227.236767,45.6915608 227.25809,45.3242593 227.25809,44.8524074 C227.25809,43.5689153 226.918302,42.5928836 226.238725,41.9229365 C225.55846,41.2543651 224.691794,40.9193915 223.638725,40.9193915 L223.638725,40.9193915 Z" id="Fill-59" fill="#000000" mask="url(#mask-4)"></path>
                <path d="M234.350794,46.1691217 C234.350794,47.463619 233.746878,48.1101799 232.540423,48.1101799 C232.036243,48.1101799 231.629735,47.9492275 231.322963,47.6252593 C231.015503,47.301291 230.862116,46.8053651 230.862116,46.1361058 L230.862116,41.1170053 L229.150794,41.1170053 L229.150794,46.1361058 C229.150794,48.5276931 230.159841,49.7231429 232.178624,49.7231429 C233.100317,49.7231429 233.823915,49.3888571 234.350794,48.7195979 L234.350794,49.5257354 L236.062116,49.5257354 L236.062116,41.1170053 L234.350794,41.1170053 L234.350794,46.1691217 Z" id="Fill-60" fill="#000000" mask="url(#mask-4)"></path>
                <path d="M240.800582,47.1887619 L240.800582,42.5981799 L242.791852,42.5981799 L242.791852,41.1172804 L240.800582,41.1172804 L240.800582,37.6451111 L239.089259,38.4677566 L239.089259,41.1172804 L237.789259,41.1172804 L237.789259,42.5981799 L239.089259,42.5981799 L239.089259,47.6331005 C239.089259,49.0266455 239.714497,49.723418 240.964974,49.723418 C241.590212,49.723418 242.155608,49.5968571 242.659788,49.3451111 L242.873704,47.7479683 C242.446561,48.0114074 242.029048,48.1434709 241.623228,48.1434709 C241.074339,48.1434709 240.800582,47.8256931 240.800582,47.1887619" id="Fill-61" fill="#000000" mask="url(#mask-4)"></path>
                <path d="M245.901534,44.5724603 C245.944868,43.8378571 246.161534,43.2972222 246.550847,42.9519312 C246.940847,42.6066402 247.425767,42.4339947 248.007672,42.4339947 C248.523545,42.4339947 248.967196,42.6093915 249.34,42.9601852 C249.712804,43.3116667 249.904709,43.8488624 249.916402,44.5724603 L245.901534,44.5724603 Z M248.007672,40.9193915 C246.84455,40.9193915 245.917354,41.3093915 245.226772,42.0880159 C244.535503,42.867328 244.190212,43.9417196 244.190212,45.313254 C244.190212,46.6841005 244.532751,47.762619 245.218519,48.5460582 C245.903598,49.330873 246.832857,49.7229365 248.007672,49.7229365 C249.246455,49.7229365 250.206667,49.3171164 250.886931,48.5054762 L249.767831,47.3533598 C249.328995,47.9242593 248.748466,48.2090212 248.02418,48.2090212 C247.464286,48.2090212 246.973862,48.0006085 246.550847,47.5837831 C246.128519,47.1669577 245.91254,46.6235714 245.901534,45.955 L251.561693,45.955 C251.605714,45.6915608 251.627037,45.3242593 251.627037,44.8524074 C251.627037,43.5689153 251.287249,42.5928836 250.607672,41.9229365 C249.927407,41.2543651 249.060741,40.9193915 248.007672,40.9193915 L248.007672,40.9193915 Z" id="Fill-62" fill="#000000" mask="url(#mask-4)"></path>
                <path d="M258.69491,45.543746 C258.250571,45.1159153 257.551735,44.7431111 256.597026,44.4246455 C256.026127,44.2052275 255.612741,44.0160741 255.354804,43.8571852 C255.096868,43.6976085 254.968243,43.4926349 254.968243,43.2395132 C254.968243,42.9987725 255.074857,42.8089312 255.288772,42.6720529 C255.502688,42.5351746 255.790201,42.4663915 256.152688,42.4663915 C256.843958,42.4663915 257.414169,42.7023175 257.864011,43.1741693 L259.097979,42.1864444 C258.395704,41.3424762 257.414169,40.9194603 256.152688,40.9194603 C255.308032,40.9194603 254.608508,41.1251217 254.054804,41.5371323 C253.500413,41.9477672 253.223905,42.5159153 253.223905,43.2395132 C253.223905,43.8977672 253.439884,44.4356508 253.873217,44.8524762 C254.30655,45.2699894 254.984063,45.6317884 255.905757,45.9385608 C256.322582,46.1029524 256.623852,46.2260741 256.810942,46.3086138 C256.997344,46.3904656 257.183746,46.5197778 257.370148,46.6958624 C257.557238,46.8712593 257.650095,47.063164 257.650095,47.2715767 C257.650095,47.8748042 257.156921,48.1760741 256.169196,48.1760741 C255.488931,48.1760741 254.847185,47.8913122 254.243958,47.3204127 L253.026497,48.3576614 C253.322265,48.7744868 253.761101,49.1060212 254.343005,49.3529524 C254.924222,49.5991958 255.543958,49.7230053 256.202212,49.7230053 C257.178243,49.7230053 257.948614,49.5125291 258.514011,49.0895132 C259.079407,48.6671852 259.361418,48.0612063 259.361418,47.2715767 C259.361418,46.547291 259.139249,45.9715767 258.69491,45.543746" id="Fill-63" fill="#000000" mask="url(#mask-4)"></path>
            </g>
        </g>
    </g>
</svg>